<?xml version="1.0" standalone="no"?>
<!DOCTYPE svg PUBLIC "-//W3C//DTD SVG 20010904//EN"
 "http://www.w3.org/TR/2001/REC-SVG-20010904/DTD/svg10.dtd">
<svg version="1.0" xmlns="http://www.w3.org/2000/svg"
 width="260.000000pt" height="260.000000pt" viewBox="0 0 260.000000 260.000000"
 preserveAspectRatio="xMidYMid meet">
<metadata>
Created by potrace 1.11, written by Peter Selinger 2001-2013
</metadata>
<g transform="translate(0.000000,260.000000) scale(0.100000,-0.100000)"
fill="#000000" stroke="none">
<path d="M1355 2060 c-484 -132 -887 -243 -895 -248 -19 -12 -25 -66 -8 -79 7
-6 208 -72 447 -147 239 -74 438 -139 442 -143 4 -4 87 -170 183 -368 l176
-360 34 -3 c26 -2 37 2 45 16 19 36 541 1511 541 1530 0 27 -20 42 -54 41 -17
-1 -427 -108 -911 -239z m695 76 c0 -3 -628 -540 -671 -574 -14 -10 -73 5
-358 94 -187 59 -339 109 -337 112 4 3 1338 368 1359 371 4 1 7 -1 7 -3z
m-107 -650 c-114 -322 -211 -586 -214 -586 -5 0 -276 548 -282 570 -2 10 695
611 701 605 2 -2 -90 -267 -205 -589z"/>
<path d="M910 443 c-41 -15 -55 -87 -22 -116 25 -22 75 -21 95 1 17 19 22 68
9 88 -8 13 -47 34 -59 33 -4 0 -15 -3 -23 -6z"/>
<path d="M1130 428 c-27 -30 -26 -73 5 -103 43 -44 109 -23 121 40 13 70 -77
115 -126 63z"/>
<path d="M1380 428 c-27 -30 -26 -73 5 -103 43 -44 109 -23 121 40 13 70 -77
115 -126 63z"/>
<path d="M1660 443 c-41 -15 -55 -87 -22 -116 25 -22 75 -21 95 1 17 19 22 68
9 88 -8 13 -47 34 -59 33 -4 0 -15 -3 -23 -6z"/>
<path d="M640 420 c-27 -27 -25 -56 5 -85 28 -29 42 -31 73 -9 26 18 30 74 6
98 -21 22 -60 20 -84 -4z"/>
<path d="M1890 420 c-27 -27 -25 -56 5 -85 28 -29 42 -31 73 -9 26 18 30 74 6
98 -21 22 -60 20 -84 -4z"/>
<path d="M406 417 c-12 -9 -17 -23 -14 -47 3 -30 7 -35 31 -38 36 -4 57 13 57
49 0 42 -40 61 -74 36z"/>
<path d="M2156 417 c-12 -9 -17 -23 -14 -47 3 -30 7 -35 31 -38 36 -4 57 13
57 49 0 42 -40 61 -74 36z"/>
<path d="M145 390 c-4 -12 -1 -27 5 -35 27 -33 78 -5 65 35 -9 28 -61 28 -70
0z"/>
<path d="M2404 396 c-12 -31 0 -51 31 -51 27 0 30 3 30 30 0 25 -4 30 -28 33
-17 2 -29 -2 -33 -12z"/>
</g>
</svg>
